<svg xmlns="http://www.w3.org/2000/svg" xmlns:xlink="http://www.w3.org/1999/xlink" width="22" height="7" viewBox="0 0 22 7"><defs><path id="a" d="M355.44 29.06l.2-.06c.54-.13 1-.4 1.37-.79.37-.4.6-.87.69-1.43a.23.23 0 0 0 .04-.08v-.63l-.06-.25a2.68 2.68 0 0 0-2.23-2.1l-.1-.05h-.62l-.16.04a7.08 7.08 0 0 0-.33.09 2.62 2.62 0 0 0-1.91 2.83c.01.3.08.59.21.86a2.85 2.85 0 0 0 1.2 1.27 2.63 2.63 0 0 0 .95.3l.04.02h.58c.03 0 .08 0 .13-.02zm-16.93-5.33c-.37.09-.7.24-1 .44a2.76 2.76 0 0 0-1.1 1.88l-.02.02v.6l.03.13c0 .06.02.12.03.17l.04.14a2.67 2.67 0 0 0 2.26 1.95l.06.02h.58c.28-.07.43-.1.48-.1a2.6 2.6 0 0 0 1.47-1.07c.35-.52.5-1.11.46-1.77-.01-.4-.12-.78-.33-1.13a2.7 2.7 0 0 0-1.95-1.3l-.08-.02-.05-.02h-.58l-.3.06zm7.87.02c-.26.08-.5.17-.71.3-.22.12-.4.27-.57.45a2.74 2.74 0 0 0-.68 1.3c-.06.26-.08.52-.06.79.03.6.26 1.14.7 1.61.43.47.96.75 1.57.84l.1.02.03.02h.6l.4-.08c.62-.16 1.12-.5 1.5-1.02.37-.53.54-1.13.51-1.82a2.45 2.45 0 0 0-.7-1.6 2.71 2.71 0 0 0-1.65-.87l-.05-.02h-.6l-.4.08z"/></defs><use fill="#b1c3d5" xlink:href="#a" transform="translate(-336 -23)"/></svg>