<svg xmlns="http://www.w3.org/2000/svg" xmlns:xlink="http://www.w3.org/1999/xlink" width="22" height="23" viewBox="0 0 22 23"><defs><path id="hp38a" d="M1301.52 16.23c1.7.98 3.03 2.3 4 4a10.8 10.8 0 0 1 1.48 5.52c0 2-.5 3.83-1.47 5.52a10.86 10.86 0 0 1-4 4 10.8 10.8 0 0 1-5.53 1.48c-2 0-3.83-.5-5.52-1.47a10.86 10.86 0 0 1-4-4 10.8 10.8 0 0 1-1.48-5.53c0-2 .49-3.83 1.47-5.52a10.86 10.86 0 0 1 4-4 10.8 10.8 0 0 1 5.53-1.48c2 0 3.83.5 5.52 1.48zm-1.12 12.85l-3.3-3.33 3.3-3.33a.75.75 0 0 0 .01-1.09.75.75 0 0 0-.54-.22.8.8 0 0 0-.56.21l-3.31 3.33-3.3-3.33a.8.8 0 0 0-.57-.21c-.21 0-.4.07-.55.22a.75.75 0 0 0-.22.55c0 .22.08.4.24.54l3.3 3.33-3.3 3.33a.7.7 0 0 0-.24.54c0 .21.07.4.22.55.16.15.34.22.55.22a.8.8 0 0 0 .56-.21l3.31-3.33 3.3 3.33a.8.8 0 0 0 .57.21c.21 0 .4-.07.54-.22a.75.75 0 0 0 .23-.55.7.7 0 0 0-.24-.54z"/></defs><g><g transform="translate(-1285 -14)"><use fill="#4a90e2" xlink:href="#hp38a"/></g></g></svg>